<svg width="60" height="60" viewBox="0 0 60 60" fill="none" xmlns="http://www.w3.org/2000/svg">
<g clip-path="url(#clip0_88_639)">
<path d="M52.5 0C56.6367 0 60 3.36341 60 7.50029V41.2516C60 45.3885 56.6367 48.7519 52.5 48.7519H41.25V58.1273C41.25 58.8421 40.8516 59.4867 40.2187 59.8031C39.5859 60.1195 38.8242 60.0492 38.25 59.6273L23.7539 48.7519H7.5C3.36328 48.7519 0 45.3885 0 41.2516V7.50029C0 3.36341 3.36328 0 7.5 0H52.5Z" fill="#13FF9C"/>
<path d="M26.6855 12.4062L27.4414 29.8965H32.2578L33.0137 12.4062H26.6855ZM33.1719 35.3457C33.1719 34.502 32.8672 33.7988 32.2578 33.2363C31.6484 32.6621 30.8574 32.375 29.8848 32.375C28.9121 32.375 28.127 32.6621 27.5293 33.2363C26.9199 33.7988 26.6152 34.502 26.6152 35.3457C26.6152 36.1895 26.9199 36.8984 27.5293 37.4727C28.127 38.0352 28.9121 38.3164 29.8848 38.3164C30.8574 38.3164 31.6484 38.0352 32.2578 37.4727C32.8672 36.8984 33.1719 36.1895 33.1719 35.3457Z" fill="#2949D3"/>
</g>
<defs>
<clipPath id="clip0_88_639">
<rect width="60" height="60" fill="white" transform="matrix(-1 0 0 1 60 0)"/>
</clipPath>
</defs>
</svg>
