<svg width="59" height="62" viewBox="0 0 59 62" fill="none" xmlns="http://www.w3.org/2000/svg">
<g clip-path="url(#clip0_88_532)">
<path d="M36.3636 52C37.1273 49.5078 38.7102 47.3828 40.2773 45.2656C40.6909 44.7109 41.1045 44.1562 41.5023 43.5938C43.0773 41.3672 44 38.6719 44 35.7578C44 28.1562 37.7318 22 30 22C22.2682 22 16 28.1562 16 35.75C16 38.6641 16.9227 41.3672 18.4977 43.5859C18.8955 44.1484 19.3091 44.7031 19.7227 45.2578C21.2898 47.3828 22.8727 49.5078 23.6364 52H36.3636ZM30 62C33.5159 62 36.3636 59.2031 36.3636 55.75V54.5H23.6364V55.75C23.6364 59.2031 26.4841 62 30 62ZM23.6364 35.75C23.6364 36.4375 23.0636 37 22.3636 37C21.6636 37 21.0909 36.4375 21.0909 35.75C21.0909 30.9141 25.0761 27 30 27C30.7 27 31.2727 27.5625 31.2727 28.25C31.2727 28.9375 30.7 29.5 30 29.5C26.4841 29.5 23.6364 32.2969 23.6364 35.75Z" fill="#13FF9C"/>
</g>
<g clip-path="url(#clip1_88_532)">
<path d="M48.7526 34.501C50.1507 34.4066 51.519 34.0059 52.8935 33.7183C53.9495 33.498 56.0272 32.7164 56.9651 33.3395C57.4425 33.6561 58.1059 33.4445 58.2982 32.8979C58.321 32.8317 58.3451 32.7619 58.3679 32.6957C58.5299 32.2251 58.3273 31.7893 57.9711 31.4898C56.8696 30.5677 55.0738 31.3764 53.895 31.7149C52.1209 32.2103 50.1506 32.7039 48.5955 33.7066C48.2954 33.8994 48.2825 34.5324 48.7526 34.501Z" fill="#13FF9C"/>
</g>
<g clip-path="url(#clip2_88_532)">
<path d="M44.7027 22.6155C46.1778 21.4688 47.3915 20.0057 48.6964 18.663C49.6994 17.6321 51.4134 15.219 52.9146 15.2086C53.6784 15.2025 54.254 14.474 54.059 13.7264C54.0349 13.6363 54.0094 13.5411 53.9852 13.451C53.8135 12.81 53.2645 12.4793 52.6475 12.4138C50.7425 12.2158 49.3603 14.4487 48.3097 15.7017C46.7181 17.5721 44.9081 19.5868 43.9368 21.8546C43.7487 22.2914 44.2064 23.0008 44.7027 22.6155Z" fill="#13FF9C"/>
</g>
<g clip-path="url(#clip3_88_532)">
<path d="M31.4347 17.0218C30.676 14.8357 30.4022 12.4972 29.9525 10.2225C29.6061 8.47506 29.4536 4.8126 27.9013 3.78912C27.112 3.26763 27.0056 2.12267 27.7123 1.47771C27.7982 1.40037 27.8889 1.31874 27.9748 1.2414C28.5856 0.691435 29.3788 0.718269 30.0638 1.06647C32.1762 2.14575 32.1056 5.39732 32.3516 7.40745C32.7433 10.4238 33.2642 13.7373 32.7435 16.748C32.6441 17.3286 31.6903 17.7566 31.4347 17.0218Z" fill="#13FF9C"/>
</g>
<g clip-path="url(#clip4_88_532)">
<path d="M17.5253 19.6197C16.2009 18.3017 15.1746 16.7016 14.043 15.2099C13.1731 14.0644 11.7661 11.4604 10.2773 11.2671C9.51991 11.168 9.03743 10.3748 9.32203 9.65657C9.35699 9.57004 9.39389 9.4787 9.42885 9.39217C9.67745 8.77685 10.2626 8.51558 10.883 8.52579C12.798 8.56137 13.8977 10.9461 14.7877 12.3178C16.1396 14.3682 17.6905 16.5885 18.3783 18.9577C18.5117 19.4143 17.9709 20.0625 17.5253 19.6197Z" fill="#13FF9C"/>
</g>
<g clip-path="url(#clip5_88_532)">
<path d="M10.0745 33.9948C8.55139 33.3837 7.17242 32.4422 5.74566 31.6246C4.64921 30.997 2.61797 29.3746 1.34791 29.7292C0.701578 29.909 0.039256 29.4332 0.0228735 28.7549C0.0214429 28.6729 0.0199329 28.5864 0.0185023 28.5045C0.00832944 27.9217 0.391731 27.5096 0.896838 27.305C2.45733 26.6765 4.16485 28.2271 5.3552 29.0307C7.15188 30.2245 9.16777 31.4874 10.5369 33.1669C10.8014 33.4902 10.5867 34.1999 10.0745 33.9948Z" fill="#13FF9C"/>
</g>
<g clip-path="url(#clip6_88_532)">
<path d="M13.1284 47.0231C12.0683 47.7152 10.863 48.1701 9.7149 48.7099C8.83307 49.1251 6.90887 49.6909 6.57098 50.6505C6.3986 51.1386 5.80483 51.3466 5.36888 51.0568C5.31645 51.0214 5.26111 50.9841 5.20868 50.9487C4.83585 50.6972 4.74511 50.2726 4.83929 49.8628C5.13267 48.5985 6.86825 48.2056 7.90286 47.8089C9.45239 47.2017 11.1426 46.4865 12.8099 46.3645C13.1312 46.3404 13.4847 46.7901 13.1284 47.0231Z" fill="#13FF9C"/>
</g>
<g clip-path="url(#clip7_88_532)">
<path d="M47.6188 47.0976C48.6909 47.7711 49.9039 48.2049 51.0613 48.7246C51.9502 49.1244 53.884 49.6565 54.2386 50.61C54.4194 51.095 55.0168 51.2926 55.4476 50.9952C55.4994 50.9589 55.5541 50.9207 55.6059 50.8844C55.9742 50.6264 56.0576 50.2003 55.9562 49.7922C55.6408 48.5332 53.8987 48.1706 52.8573 47.7921C51.2974 47.212 49.595 46.5264 47.9258 46.4335C47.6041 46.415 47.2585 46.8709 47.6188 47.0976Z" fill="#13FF9C"/>
</g>
<defs>
<clipPath id="clip0_88_532">
<rect width="28" height="40" fill="white" transform="translate(16 22)"/>
</clipPath>
<clipPath id="clip1_88_532">
<rect width="9" height="6" fill="white" transform="translate(50.2217 28.698) rotate(19)"/>
</clipPath>
<clipPath id="clip2_88_532">
<rect width="12" height="8" fill="white" transform="translate(42 15.1057) rotate(-15)"/>
</clipPath>
<clipPath id="clip3_88_532">
<rect width="14.8618" height="9.90787" fill="white" transform="matrix(-0.669131 -0.743145 -0.743145 0.669131 39.3076 11.0444)"/>
</clipPath>
<clipPath id="clip4_88_532">
<rect width="12" height="8" fill="white" transform="matrix(-0.927184 -0.374607 -0.374607 0.927184 21.123 12.4954)"/>
</clipPath>
<clipPath id="clip5_88_532">
<rect width="10.5399" height="7.02659" fill="white" transform="matrix(-0.999848 0.0174524 0.0174524 0.999848 10.5383 27)"/>
</clipPath>
<clipPath id="clip6_88_532">
<rect width="8.13161" height="5.42107" fill="white" transform="matrix(-0.559193 0.829037 0.829037 0.559193 8.91309 43.6348)"/>
</clipPath>
<clipPath id="clip7_88_532">
<rect width="8.13161" height="5.42107" fill="white" transform="translate(51.7744 43.636) rotate(55)"/>
</clipPath>
</defs>
</svg>
