<svg width="342" height="351" viewBox="0 0 342 351" fill="none" xmlns="http://www.w3.org/2000/svg">
<mask id="mask0_88_71" style="mask-type:luminance" maskUnits="userSpaceOnUse" x="-73" y="0" width="415" height="415">
<path d="M134.25 414.5C248.711 414.5 341.5 321.711 341.5 207.25C341.5 92.789 248.711 0 134.25 0C19.789 0 -73 92.789 -73 207.25C-73 321.711 19.789 414.5 134.25 414.5Z" fill="white"/>
</mask>
<g mask="url(#mask0_88_71)">
<path d="M134.339 -170.878H-460.056V570.029H134.339V-170.878Z" fill="#03A5ED"/>
<path d="M727.567 -170.878H133.172V570.029H727.567V-170.878Z" fill="#B5C0F1"/>
<path d="M133.172 207.25L-376.317 483.085L619.804 468.727L133.172 207.25Z" fill="#42475F"/>
<path d="M133.172 74.4524V208.667L244.571 267.402L133.172 74.4524Z" fill="#C1CCFF"/>
<path d="M133.17 74.4524L21.7713 267.402L133.367 208.667L133.17 74.4524Z" fill="#0FB3FC"/>
<path d="M133.417 208.667L22.0179 267.402H244.818L133.417 208.667Z" fill="#535974"/>
</g>
</svg>
